# Blender v2.90.0 OBJ File: ''
# www.blender.org
mtllib background.mtl
o Cube.001_Cube.002
v 0.000000 0.000000 20.000000
v 0.000000 20.000000 20.000000
v 0.000000 0.000000 0.000000
v 0.000000 20.000000 0.000000
v 20.000000 0.000000 20.000000
v 20.000000 20.000000 20.000000
v 20.000000 0.000000 0.000000
v 20.000000 20.000000 0.000000
vt 0.000000 0.000000
vt 1.000000 0.000000
vt 1.000000 1.000000
vt 0.000000 1.000000
vt 0.000000 0.000000
vt 1.000000 0.000000
vt 1.000000 1.000000
vt 0.000000 1.000000
vt 0.000000 0.000000
vt 0.000000 1.000000
vt 1.000000 0.000000
vt 1.000000 1.000000
vt 0.000000 1.000000
vt 1.000000 1.000000
vt 1.000000 0.000000
vt 0.000000 0.000000
vn 1.0000 0.0000 0.0000
vn 0.0000 0.0000 1.0000
vn -1.0000 0.0000 0.0000
vn 0.0000 0.0000 -1.0000
vn 0.0000 1.0000 0.0000
vn 0.0000 -1.0000 0.0000
usemtl background
s off
f 1/1/1 3/2/1 4/3/1 2/4/1
f 3/5/2 7/6/2 8/7/2 4/8/2
f 7/6/3 5/9/3 6/10/3 8/7/3
f 5/11/4 1/1/4 2/4/4 6/12/4
f 3/13/5 1/1/5 5/11/5 7/14/5
f 8/7/6 6/15/6 2/16/6 4/8/6
