# Blender v2.90.0 OBJ File: 'blender_scene.blend'
# www.blender.org
mtllib container.mtl
o Cube.003_Cube
v -1.000000 -1.000000 1.000000
v -1.000000 1.000000 1.000000
v -1.000000 -1.000000 -1.000000
v -1.000000 1.000000 -1.000000
v 1.000000 -1.000000 1.000000
v 1.000000 1.000000 1.000000
v 1.000000 -1.000000 -1.000000
v 1.000000 1.000000 -1.000000
v -1.000000 0.520826 1.000000
v -1.000000 0.735931 1.000000
v -1.000000 0.735931 -1.000000
v -1.000000 0.520826 -1.000000
v 1.000000 0.735931 -1.000000
v 1.000000 0.520826 -1.000000
v 1.000000 0.735931 1.000000
v 1.000000 0.520826 1.000000
v -0.859587 0.535928 0.859587
v -0.859587 0.720829 0.859587
v -0.859587 0.720829 -0.859587
v -0.859587 0.535928 -0.859587
v 0.859587 0.720829 -0.859587
v 0.859587 0.535928 -0.859587
v 0.859587 0.720829 0.859587
v 0.859587 0.535928 0.859587
vt 0.003786 0.810475
vt 0.003786 0.819327
vt 0.070828 0.819327
vt 0.070828 0.810475
vt 0.003786 0.810475
vt 0.003786 0.819327
vt 0.070828 0.819327
vt 0.070828 0.810475
vt 0.003786 0.819327
vt 0.003786 0.810475
vt 0.070828 0.810475
vt 0.070828 0.819327
vt 0.009300 0.826701
vt 0.065314 0.826701
vt 0.065314 0.770686
vt 0.009300 0.770686
vt 0.065314 0.826701
vt 0.009300 0.826701
vt 0.009300 0.770686
vt 0.065314 0.770686
vt 0.065314 0.758954
vt 0.065314 0.801548
vt 0.009300 0.801548
vt 0.009300 0.758954
vt 0.003786 0.766327
vt 0.070828 0.766327
vt 0.066121 0.771034
vt 0.008493 0.771034
vt 0.065314 0.758954
vt 0.065314 0.801548
vt 0.009300 0.801548
vt 0.009300 0.758954
vt 0.070828 0.833369
vt 0.066121 0.828663
vt 0.009300 0.758954
vt 0.009300 0.801548
vt 0.003786 0.833369
vt 0.008493 0.828663
vt 0.065314 0.801548
vt 0.065314 0.758954
vt 0.137722 0.943787
vt 0.137722 0.974182
vt 0.108372 0.974182
vt 0.108372 0.943787
vt 0.137722 0.943787
vt 0.137722 0.974182
vt 0.108372 0.974182
vt 0.108372 0.943787
vt 0.108372 0.943787
vt 0.108372 0.974182
vt 0.137722 0.974182
vt 0.137722 0.943787
vt 0.003786 0.766327
vt 0.003786 0.833369
vt 0.008493 0.828663
vt 0.008493 0.771034
vt 0.070828 0.833369
vt 0.066121 0.828663
vt 0.070828 0.766327
vt 0.066121 0.771034
vn -1.0000 0.0000 0.0000
vn 0.0000 0.0000 -1.0000
vn 1.0000 0.0000 0.0000
vn 0.0000 0.0000 1.0000
vn 0.0000 -1.0000 0.0000
vn 0.0000 1.0000 0.0000
vn 0.0000 0.9943 0.1069
vn 0.1069 0.9943 0.0000
vn 0.0000 0.9943 -0.1069
vn -0.1069 0.9943 0.0000
vn -0.1069 -0.9943 0.0000
vn 0.0000 -0.9943 -0.1069
vn 0.1069 -0.9943 0.0000
vn 0.0000 -0.9943 0.1069
usemtl color
s off
f 10/1/1 2/2/1 4/3/1 11/4/1
f 11/5/2 4/6/2 8/7/2 13/8/2
f 13/8/3 8/7/3 6/9/3 15/10/3
f 15/11/4 6/12/4 2/2/4 10/1/4
f 3/13/5 7/14/5 5/15/5 1/16/5
f 8/17/6 4/18/6 2/19/6 6/20/6
f 5/21/4 16/22/4 9/23/4 1/24/4
f 9/25/7 16/26/7 24/27/7 17/28/7
f 7/29/3 14/30/3 16/31/3 5/32/3
f 16/26/8 14/33/8 22/34/8 24/27/8
f 3/35/2 12/36/2 14/30/2 7/29/2
f 14/33/9 12/37/9 20/38/9 22/34/9
f 1/24/1 9/23/1 12/39/1 3/40/1
f 12/37/10 9/25/10 17/28/10 20/38/10
f 24/41/4 23/42/4 18/43/4 17/44/4
f 22/45/3 21/46/3 23/47/3 24/48/3
f 20/49/2 19/50/2 21/46/2 22/45/2
f 17/44/1 18/43/1 19/51/1 20/52/1
f 10/53/11 11/54/11 19/55/11 18/56/11
f 11/54/12 13/57/12 21/58/12 19/55/12
f 13/57/13 15/59/13 23/60/13 21/58/13
f 15/59/14 10/53/14 18/56/14 23/60/14
