# Blender v2.90.0 OBJ File: 'blender_scene.blend'
# www.blender.org
mtllib cursor.mtl
o Plane
v -0.867865 0.020000 0.867865
v 0.867865 0.020000 0.867865
v -0.867865 0.020000 -0.867865
v 0.867865 0.020000 -0.867865
v -0.675191 0.020000 -0.675191
v -0.675191 0.020000 0.675191
v 0.675191 0.020000 0.675191
v 0.675191 0.020000 -0.675191
v -0.926073 -0.019721 -0.860709
v 0.809657 -0.019721 -0.860709
v -0.926073 -0.019721 0.875021
v 0.809657 -0.019721 0.875021
v -0.733399 -0.019721 0.682347
v -0.733399 -0.019721 -0.668035
v 0.616983 -0.019721 -0.668035
v 0.616983 -0.019721 0.682347
vt 0.073287 0.987468
vt 0.013762 0.987468
vt 0.020370 0.980861
vt 0.066680 0.980861
vt 0.013762 0.927943
vt 0.073287 0.927943
vt 0.066680 0.934551
vt 0.020370 0.934551
vt 0.073287 0.987468
vt 0.013762 0.987468
vt 0.020370 0.980861
vt 0.066680 0.980861
vt 0.013762 0.927943
vt 0.073287 0.927943
vt 0.066680 0.934551
vt 0.020370 0.934551
vn 0.0000 1.0000 0.0000
vn 0.0000 -1.0000 0.0000
usemtl Material.005
s off
f 4/1/1 3/2/1 5/3/1 8/4/1
f 1/5/1 2/6/1 7/7/1 6/8/1
f 2/6/1 4/1/1 8/4/1 7/7/1
f 3/2/1 1/5/1 6/8/1 5/3/1
f 12/9/2 11/10/2 13/11/2 16/12/2
f 9/13/2 10/14/2 15/15/2 14/16/2
f 10/14/2 12/9/2 16/12/2 15/15/2
f 11/10/2 9/13/2 14/16/2 13/11/2
